<?xml version="1.0" encoding="iso-8859-1"?>
<!-- Generator: Adobe Illustrator 19.0.0, SVG Export Plug-In . SVG Version: 6.00 Build 0)  -->
<svg version="1.1" id="Capa_1" xmlns="http://www.w3.org/2000/svg" xmlns:xlink="http://www.w3.org/1999/xlink" x="0px" y="0px"
	 viewBox="0 0 430.6 430.6" style="enable-background:new 0 0 430.6 430.6;" xml:space="preserve">
<g>
	<g>
		<path d="M227.2,30.799c-5.5,0-9.9,4.4-9.9,9.9v0.1v244.1c-26.4-26-68.9-25.7-94.9,0.7s-25.7,68.9,0.7,94.9
			c26.4,26,68.9,25.7,94.9-0.7c12.4-12.6,19.3-29.5,19.3-47.1v-150c17-26.6,46.8-42.3,78.9-42.3c52.2,0.1,94.4,42.3,94.4,94.5
			c0.1,5.5,4.6,10,10.1,9.9c5.4-0.1,9.9-4.5,9.9-9.9C430.7,122.299,339.4,30.799,227.2,30.799z M169.9,379.799
			c-26,0-47.1-21.1-47.1-47.1s21.1-47.1,47.1-47.1s47.1,21.1,47.1,47.1S195.9,379.799,169.9,379.799z M316.2,120.399
			c-29.4-0.1-57.6,11.1-78.9,31.4v-100.7c64,3.5,120.4,40.7,150.3,94.2C367.3,129.099,342.1,120.299,316.2,120.399z"/>
	</g>
</g>
<g>
	<g>
		<path d="M165.3,41.299H10c-5.5,0-10,4.5-10,10s4.5,10,10,10h155.3c5.5,0,10-4.5,10-10S170.8,41.299,165.3,41.299z"/>
	</g>
</g>
<g>
	<g>
		<path d="M165.3,113.299H10c-5.5,0-10,4.5-10,10c0,5.5,4.5,10,10,10h155.3c5.5,0,10-4.5,10-10
			C175.3,117.799,170.8,113.299,165.3,113.299z"/>
	</g>
</g>
<g>
	<g>
		<path d="M165.3,186.299H10c-5.5,0-10,4.5-10,10s4.5,10,10,10h155.3c5.5,0,10-4.5,10-10S170.8,186.299,165.3,186.299z"/>
	</g>
</g>
<g>
</g>
<g>
</g>
<g>
</g>
<g>
</g>
<g>
</g>
<g>
</g>
<g>
</g>
<g>
</g>
<g>
</g>
<g>
</g>
<g>
</g>
<g>
</g>
<g>
</g>
<g>
</g>
<g>
</g>
</svg>
