<svg xmlns="http://www.w3.org/2000/svg" width="82.4" height="87.5" viewBox="0 0 82.4 87.5"><g transform="translate(3544 841)"><g transform="translate(-3544 -841)"><path d="M40.089,5.889A35.32,35.32,0,0,1,61.8,13.462H51.129a1.683,1.683,0,0,0,0,3.365H66.273a1.7,1.7,0,0,0,.643-.13,1.676,1.676,0,0,0,.91-.91,1.7,1.7,0,0,0,.13-.643V1.683a1.683,1.683,0,1,0-3.365,0V11.35A38.675,38.675,0,0,0,40.106,2.524h-.2A38.161,38.161,0,0,0,12.73,13.766a38.755,38.755,0,0,0-1.573,52.85A1.682,1.682,0,1,0,13.686,64.4a35.136,35.136,0,0,1,26.4-58.509Z" transform="translate(-1.515)"/><path d="M67.787,12.634a1.683,1.683,0,0,0-2.529,2.221,35.382,35.382,0,0,1-1.413,48.263,34.719,34.719,0,0,1-24.98,10.256A35.32,35.32,0,0,1,17.157,65.8h10.67a1.683,1.683,0,0,0,0-3.365H12.683A1.689,1.689,0,0,0,11,64.12V77.581a1.683,1.683,0,1,0,3.365,0V67.914A38.675,38.675,0,0,0,38.85,76.74h.2A38.161,38.161,0,0,0,66.226,65.5,38.754,38.754,0,0,0,67.787,12.634Z" transform="translate(4.96 8.236)"/></g><text transform="translate(-3518 -782)" font-size="48" font-family="r0c0iLinotte-Bold, r0c0i Linotte" font-weight="700"><tspan x="0" y="0">A</tspan></text></g></svg>