<?xml version="1.0" encoding="iso-8859-1"?>
<!-- Generator: Adobe Illustrator 17.1.0, SVG Export Plug-In . SVG Version: 6.00 Build 0)  -->
<!DOCTYPE svg PUBLIC "-//W3C//DTD SVG 1.1//EN" "http://www.w3.org/Graphics/SVG/1.1/DTD/svg11.dtd">
<svg version="1.1" id="Capa_1" xmlns="http://www.w3.org/2000/svg" xmlns:xlink="http://www.w3.org/1999/xlink" x="0px" y="0px"
	 viewBox="0 0 317.878 317.878" style="enable-background:new 0 0 317.878 317.878;" xml:space="preserve">
<path d="M317.714,238.885l-17.103-112.573c-0.853-5.609-4.804-9.378-9.833-9.378c-2.258,0-4.577,0.782-6.707,2.262l-93.502,64.979
	c-3.474,2.414-5.264,5.796-4.913,9.28c0.351,3.483,2.781,6.44,6.667,8.112l36.27,15.607c-18.628,27.195-49.906,45.074-85.285,45.074
	C86.344,262.248,40,215.903,40,158.939S86.344,55.63,143.309,55.63c11.046,0,20-8.954,20-20s-8.954-20-20-20
	C64.288,15.63,0,79.918,0,158.939s64.288,143.309,143.309,143.309c51.855,0,97.365-27.684,122.528-69.048l38.043,16.37
	c1.679,0.722,3.336,1.088,4.928,1.088c2.713,0,5.128-1.071,6.8-3.016C317.491,245.45,318.239,242.34,317.714,238.885z"/>
<g>
</g>
<g>
</g>
<g>
</g>
<g>
</g>
<g>
</g>
<g>
</g>
<g>
</g>
<g>
</g>
<g>
</g>
<g>
</g>
<g>
</g>
<g>
</g>
<g>
</g>
<g>
</g>
<g>
</g>
</svg>
